<svg t="1751807996387" class="icon" viewBox="0 0 1024 1024" version="1.1" xmlns="http://www.w3.org/2000/svg" p-id="4637"
  width="200" height="200">
  <path
    d="M663.860476 63.038882c-15.94608-47.838239-67.141388-73.855527-114.979628-58.748715-47.838239 15.94608-73.855527 67.141388-58.748714 114.979627l235.834126 725.126993c15.94608 44.48117 64.623586 69.65919 110.78329 56.230912 48.677506-14.267545 78.051864-65.462853 62.105784-112.461825 0-1.678535-234.994859-725.126992-234.994858-725.126992z"
    fill="#E9A823" p-id="4638"></path>
  <path
    d="M298.779177 182.214846c-15.94608-47.838239-67.141388-73.855527-114.979627-58.748715s-73.855527 67.141388-58.748714 114.979627L360.884962 963.572751c15.94608 44.48117 64.623586 69.65919 110.78329 56.230912 48.677506-14.267545 78.051864-65.462853 62.105784-112.461825 0-1.678535-234.994859-725.126992-234.994859-725.126992z"
    fill="#3FB991" p-id="4639"></path>
  <path
    d="M960.961118 663.954306c47.838239-15.94608 73.855527-67.141388 58.748715-114.979627-15.94608-47.838239-67.141388-73.855527-114.979627-58.748715L178.763946 726.06009c-44.48117 15.94608-69.65919 64.623586-56.230913 110.78329 14.267545 48.677506 65.462853 78.051864 112.461826 62.105784 1.678535 0 725.96626-234.994859 725.966259-234.994858z"
    fill="#E11765" p-id="4640"></path>
  <path
    d="M329.832069 868.73554c46.998972-15.106812 108.265488-35.249229 173.728342-56.230913-15.106812-46.998972-35.249229-108.265488-56.230912-173.728342l-173.728342 56.230913 56.230912 173.728342z"
    fill="#472A49" p-id="4641"></path>
  <path
    d="M694.913368 750.398843c65.462853-20.981684 126.72937-41.1241 173.728342-56.230912-15.106812-46.998972-35.249229-108.265488-56.230913-173.728342l-173.728342 56.230912 56.230913 173.728342z"
    fill="#CD2027" p-id="4642"></path>
  <path
    d="M841.785154 298.873008c47.838239-15.94608 73.855527-67.141388 58.748715-114.979628s-67.141388-73.855527-114.979627-58.748714L60.427249 360.978792C15.94608 376.924871-9.231941 425.602378 4.196337 471.762082c14.267545 48.677506 65.462853 78.051864 112.461825 62.105784 1.678535 0 725.126992-234.994859 725.126992-234.994858z"
    fill="#71CBDC" p-id="4643"></path>
  <path
    d="M211.495373 503.654242c46.998972-15.106812 108.265488-35.249229 173.728342-56.230913-20.981684-65.462853-41.1241-126.72937-56.230913-173.728342l-173.728342 56.230913L211.495373 503.654242z"
    fill="#1D947E" p-id="4644"></path>
  <path
    d="M576.576671 384.478277c65.462853-20.981684 126.72937-41.1241 173.728342-56.230912-20.981684-65.462853-41.1241-126.72937-56.230913-173.728342L520.345758 211.589203l56.230913 172.889074z"
    fill="#66873A" p-id="4645"></path>
</svg>
